<?xml version="1.0"?>
<svg xmlns="http://www.w3.org/2000/svg" xmlns:xlink="http://www.w3.org/1999/xlink" version="1.1" id="Capa_1" x="0px" y="0px" width="512px" height="512px" viewBox="0 0 315.829 315.828" style="enable-background:new 0 0 315.829 315.828;" xml:space="preserve"><g><g>
	<path d="M157.953,315.828C70.73,315.828,0.03,245.091,0.03,157.905C0.03,70.676,70.724,0,157.953,0   c87.193,0,157.845,70.676,157.845,157.905C315.798,245.091,245.133,315.828,157.953,315.828z M157.896,38.088   c-66.02,0-119.57,53.206-119.57,119.226c0,66.082,53.551,119.573,119.57,119.573c66.017,0,119.567-53.491,119.567-119.573   C277.463,91.294,223.913,38.088,157.896,38.088z M155.695,177.015c-9.968,0-18.047-8.1-18.047-18.064v-26.614V76.191   c0-9.986,9.311-18.089,19.338-18.089c9.965,0,20.551,8.104,20.551,18.089v43.318c0,10.19,8.257,18.528,18.447,18.621l20.788,0.195   c9.968,0,18.093,10.583,18.093,20.624c0,9.965-8.125,18.064-18.093,18.064H155.695z" data-original="#000000" class="active-path" data-old_color="#ffffff" fill="#ffffff"/>
</g></g> </svg>
